<?xml version="1.0" encoding="UTF-8" standalone="no"?>
<!-- Created with Inkscape (http://www.inkscape.org/) -->

<svg
   xmlns:dc="http://purl.org/dc/elements/1.1/"
   xmlns:cc="http://creativecommons.org/ns#"
   xmlns:rdf="http://www.w3.org/1999/02/22-rdf-syntax-ns#"
   xmlns:svg="http://www.w3.org/2000/svg"
   xmlns="http://www.w3.org/2000/svg"
   xmlns:sodipodi="http://sodipodi.sourceforge.net/DTD/sodipodi-0.dtd"
   xmlns:inkscape="http://www.inkscape.org/namespaces/inkscape"
   width="744.09003"
   height="100"
   id="svg3980"
   version="1.1"
   inkscape:version="0.48.2 r9819"
   sodipodi:docname="torn-graphpad.svg"
   inkscape:export-filename="/Users/nbudin/src/journey/app/assets/images/torn-graphpad.png"
   inkscape:export-xdpi="89.989113"
   inkscape:export-ydpi="89.989113">
  <defs
     id="defs3982">
    <filter
       inkscape:collect="always"
       id="filter4761">
      <feGaussianBlur
         inkscape:collect="always"
         stdDeviation="0.22764644"
         id="feGaussianBlur4763" />
    </filter>
    <filter
       inkscape:collect="always"
       id="filter4791">
      <feGaussianBlur
         inkscape:collect="always"
         stdDeviation="2.5041108"
         id="feGaussianBlur4793" />
    </filter>
  </defs>
  <sodipodi:namedview
     id="base"
     pagecolor="#eeeee8"
     bordercolor="#666666"
     borderopacity="1.0"
     inkscape:pageopacity="1"
     inkscape:pageshadow="2"
     inkscape:zoom="0.98994949"
     inkscape:cx="462.87147"
     inkscape:cy="78.847326"
     inkscape:document-units="px"
     inkscape:current-layer="layer1"
     showgrid="false" />
  <metadata
     id="metadata3985">
    <rdf:RDF>
      <cc:Work
         rdf:about="">
        <dc:format>image/svg+xml</dc:format>
        <dc:type
           rdf:resource="http://purl.org/dc/dcmitype/StillImage" />
        <dc:title></dc:title>
      </cc:Work>
    </rdf:RDF>
  </metadata>
  <g
     inkscape:label="Layer 1"
     inkscape:groupmode="layer"
     id="layer1"
     transform="translate(0,-952.36218)">
    <g
       id="g4525">
      <path
         sodipodi:nodetypes="cc"
         inkscape:connector-curvature="0"
         id="path4515"
         d="m -72.954934,960.93354 889.999994,0"
         style="fill:none;stroke:#2acaff;stroke-width:1px;stroke-linecap:butt;stroke-linejoin:miter;stroke-opacity:1" />
      <path
         style="fill:none;stroke:#2acaff;stroke-width:1px;stroke-linecap:butt;stroke-linejoin:miter;stroke-opacity:1"
         d="m -72.954932,981.64787 889.999992,0"
         id="path4517"
         inkscape:connector-curvature="0"
         sodipodi:nodetypes="cc" />
      <path
         sodipodi:nodetypes="cc"
         inkscape:connector-curvature="0"
         id="path4519"
         d="m -72.954934,1002.3622 889.999994,0"
         style="fill:none;stroke:#2acaff;stroke-width:1px;stroke-linecap:butt;stroke-linejoin:miter;stroke-opacity:1" />
      <path
         style="fill:none;stroke:#2acaff;stroke-width:1px;stroke-linecap:butt;stroke-linejoin:miter;stroke-opacity:1"
         d="m -72.954934,1023.0765 889.999994,0"
         id="path4521"
         inkscape:connector-curvature="0"
         sodipodi:nodetypes="cc" />
      <path
         sodipodi:nodetypes="cc"
         inkscape:connector-curvature="0"
         id="path4523"
         d="m -72.954936,1043.7908 889.999996,0"
         style="fill:none;stroke:#2acaff;stroke-width:1px;stroke-linecap:butt;stroke-linejoin:miter;stroke-opacity:1" />
    </g>
    <g
       id="g4629">
      <g
         id="g4589">
        <g
           id="g4532"
           transform="matrix(0,1,-1,0,1054.4073,741.74568)">
          <path
             style="fill:none;stroke:#2acaff;stroke-width:1px;stroke-linecap:butt;stroke-linejoin:miter;stroke-opacity:1"
             d="m -72.954934,960.93354 889.999994,0"
             id="path4534"
             inkscape:connector-curvature="0"
             sodipodi:nodetypes="cc" />
          <path
             sodipodi:nodetypes="cc"
             inkscape:connector-curvature="0"
             id="path4536"
             d="m -72.954932,981.64787 889.999992,0"
             style="fill:none;stroke:#2acaff;stroke-width:1px;stroke-linecap:butt;stroke-linejoin:miter;stroke-opacity:1" />
          <path
             style="fill:none;stroke:#2acaff;stroke-width:1px;stroke-linecap:butt;stroke-linejoin:miter;stroke-opacity:1"
             d="m -72.954934,1002.3622 889.999994,0"
             id="path4538"
             inkscape:connector-curvature="0"
             sodipodi:nodetypes="cc" />
          <path
             sodipodi:nodetypes="cc"
             inkscape:connector-curvature="0"
             id="path4540"
             d="m -72.954934,1023.0765 889.999994,0"
             style="fill:none;stroke:#2acaff;stroke-width:1px;stroke-linecap:butt;stroke-linejoin:miter;stroke-opacity:1" />
          <path
             style="fill:none;stroke:#2acaff;stroke-width:1px;stroke-linecap:butt;stroke-linejoin:miter;stroke-opacity:1"
             d="m -72.954936,1043.7908 889.999996,0"
             id="path4542"
             inkscape:connector-curvature="0"
             sodipodi:nodetypes="cc" />
        </g>
        <g
           transform="matrix(0,1,-1,0,1160.4073,738.88854)"
           id="g4544">
          <path
             sodipodi:nodetypes="cc"
             inkscape:connector-curvature="0"
             id="path4546"
             d="m -72.954934,960.93354 889.999994,0"
             style="fill:none;stroke:#2acaff;stroke-width:1px;stroke-linecap:butt;stroke-linejoin:miter;stroke-opacity:1" />
          <path
             style="fill:none;stroke:#2acaff;stroke-width:1px;stroke-linecap:butt;stroke-linejoin:miter;stroke-opacity:1"
             d="m -72.954932,981.64787 889.999992,0"
             id="path4548"
             inkscape:connector-curvature="0"
             sodipodi:nodetypes="cc" />
          <path
             sodipodi:nodetypes="cc"
             inkscape:connector-curvature="0"
             id="path4550"
             d="m -72.954934,1002.3622 889.999994,0"
             style="fill:none;stroke:#2acaff;stroke-width:1px;stroke-linecap:butt;stroke-linejoin:miter;stroke-opacity:1" />
          <path
             style="fill:none;stroke:#2acaff;stroke-width:1px;stroke-linecap:butt;stroke-linejoin:miter;stroke-opacity:1"
             d="m -72.954934,1023.0765 889.999994,0"
             id="path4552"
             inkscape:connector-curvature="0"
             sodipodi:nodetypes="cc" />
          <path
             sodipodi:nodetypes="cc"
             inkscape:connector-curvature="0"
             id="path4554"
             d="m -72.954936,1043.7908 889.999996,0"
             style="fill:none;stroke:#2acaff;stroke-width:1px;stroke-linecap:butt;stroke-linejoin:miter;stroke-opacity:1" />
        </g>
      </g>
      <g
         transform="translate(209.14286,2.8571429)"
         id="g4603">
        <g
           transform="matrix(0,1,-1,0,1054.4073,741.74568)"
           id="g4605">
          <path
             sodipodi:nodetypes="cc"
             inkscape:connector-curvature="0"
             id="path4607"
             d="m -72.954934,960.93354 889.999994,0"
             style="fill:none;stroke:#2acaff;stroke-width:1px;stroke-linecap:butt;stroke-linejoin:miter;stroke-opacity:1" />
          <path
             style="fill:none;stroke:#2acaff;stroke-width:1px;stroke-linecap:butt;stroke-linejoin:miter;stroke-opacity:1"
             d="m -72.954932,981.64787 889.999992,0"
             id="path4609"
             inkscape:connector-curvature="0"
             sodipodi:nodetypes="cc" />
          <path
             sodipodi:nodetypes="cc"
             inkscape:connector-curvature="0"
             id="path4611"
             d="m -72.954934,1002.3622 889.999994,0"
             style="fill:none;stroke:#2acaff;stroke-width:1px;stroke-linecap:butt;stroke-linejoin:miter;stroke-opacity:1" />
          <path
             style="fill:none;stroke:#2acaff;stroke-width:1px;stroke-linecap:butt;stroke-linejoin:miter;stroke-opacity:1"
             d="m -72.954934,1023.0765 889.999994,0"
             id="path4613"
             inkscape:connector-curvature="0"
             sodipodi:nodetypes="cc" />
          <path
             sodipodi:nodetypes="cc"
             inkscape:connector-curvature="0"
             id="path4615"
             d="m -72.954936,1043.7908 889.999996,0"
             style="fill:none;stroke:#2acaff;stroke-width:1px;stroke-linecap:butt;stroke-linejoin:miter;stroke-opacity:1" />
        </g>
        <g
           id="g4617"
           transform="matrix(0,1,-1,0,1160.4073,738.88854)">
          <path
             style="fill:none;stroke:#2acaff;stroke-width:1px;stroke-linecap:butt;stroke-linejoin:miter;stroke-opacity:1"
             d="m -72.954934,960.93354 889.999994,0"
             id="path4619"
             inkscape:connector-curvature="0"
             sodipodi:nodetypes="cc" />
          <path
             sodipodi:nodetypes="cc"
             inkscape:connector-curvature="0"
             id="path4621"
             d="m -72.954932,981.64787 889.999992,0"
             style="fill:none;stroke:#2acaff;stroke-width:1px;stroke-linecap:butt;stroke-linejoin:miter;stroke-opacity:1" />
          <path
             style="fill:none;stroke:#2acaff;stroke-width:1px;stroke-linecap:butt;stroke-linejoin:miter;stroke-opacity:1"
             d="m -72.954934,1002.3622 889.999994,0"
             id="path4623"
             inkscape:connector-curvature="0"
             sodipodi:nodetypes="cc" />
          <path
             sodipodi:nodetypes="cc"
             inkscape:connector-curvature="0"
             id="path4625"
             d="m -72.954934,1023.0765 889.999994,0"
             style="fill:none;stroke:#2acaff;stroke-width:1px;stroke-linecap:butt;stroke-linejoin:miter;stroke-opacity:1" />
          <path
             style="fill:none;stroke:#2acaff;stroke-width:1px;stroke-linecap:butt;stroke-linejoin:miter;stroke-opacity:1"
             d="m -72.954936,1043.7908 889.999996,0"
             id="path4627"
             inkscape:connector-curvature="0"
             sodipodi:nodetypes="cc" />
        </g>
      </g>
    </g>
    <g
       id="g4657"
       transform="translate(420.57143,0)">
      <g
         id="g4659">
        <g
           transform="matrix(0,1,-1,0,1054.4073,741.74568)"
           id="g4661">
          <path
             sodipodi:nodetypes="cc"
             inkscape:connector-curvature="0"
             id="path4663"
             d="m -72.954934,960.93354 889.999994,0"
             style="fill:none;stroke:#2acaff;stroke-width:1px;stroke-linecap:butt;stroke-linejoin:miter;stroke-opacity:1" />
          <path
             style="fill:none;stroke:#2acaff;stroke-width:1px;stroke-linecap:butt;stroke-linejoin:miter;stroke-opacity:1"
             d="m -72.954932,981.64787 889.999992,0"
             id="path4665"
             inkscape:connector-curvature="0"
             sodipodi:nodetypes="cc" />
          <path
             sodipodi:nodetypes="cc"
             inkscape:connector-curvature="0"
             id="path4667"
             d="m -72.954934,1002.3622 889.999994,0"
             style="fill:none;stroke:#2acaff;stroke-width:1px;stroke-linecap:butt;stroke-linejoin:miter;stroke-opacity:1" />
          <path
             style="fill:none;stroke:#2acaff;stroke-width:1px;stroke-linecap:butt;stroke-linejoin:miter;stroke-opacity:1"
             d="m -72.954934,1023.0765 889.999994,0"
             id="path4669"
             inkscape:connector-curvature="0"
             sodipodi:nodetypes="cc" />
          <path
             sodipodi:nodetypes="cc"
             inkscape:connector-curvature="0"
             id="path4671"
             d="m -72.954936,1043.7908 889.999996,0"
             style="fill:none;stroke:#2acaff;stroke-width:1px;stroke-linecap:butt;stroke-linejoin:miter;stroke-opacity:1" />
        </g>
        <g
           id="g4673"
           transform="matrix(0,1,-1,0,1160.4073,738.88854)">
          <path
             style="fill:none;stroke:#2acaff;stroke-width:1px;stroke-linecap:butt;stroke-linejoin:miter;stroke-opacity:1"
             d="m -72.954934,960.93354 889.999994,0"
             id="path4675"
             inkscape:connector-curvature="0"
             sodipodi:nodetypes="cc" />
          <path
             sodipodi:nodetypes="cc"
             inkscape:connector-curvature="0"
             id="path4677"
             d="m -72.954932,981.64787 889.999992,0"
             style="fill:none;stroke:#2acaff;stroke-width:1px;stroke-linecap:butt;stroke-linejoin:miter;stroke-opacity:1" />
          <path
             style="fill:none;stroke:#2acaff;stroke-width:1px;stroke-linecap:butt;stroke-linejoin:miter;stroke-opacity:1"
             d="m -72.954934,1002.3622 889.999994,0"
             id="path4679"
             inkscape:connector-curvature="0"
             sodipodi:nodetypes="cc" />
          <path
             sodipodi:nodetypes="cc"
             inkscape:connector-curvature="0"
             id="path4681"
             d="m -72.954934,1023.0765 889.999994,0"
             style="fill:none;stroke:#2acaff;stroke-width:1px;stroke-linecap:butt;stroke-linejoin:miter;stroke-opacity:1" />
          <path
             style="fill:none;stroke:#2acaff;stroke-width:1px;stroke-linecap:butt;stroke-linejoin:miter;stroke-opacity:1"
             d="m -72.954936,1043.7908 889.999996,0"
             id="path4683"
             inkscape:connector-curvature="0"
             sodipodi:nodetypes="cc" />
        </g>
      </g>
      <g
         id="g4685"
         transform="translate(209.14286,2.8571429)">
        <g
           id="g4687"
           transform="matrix(0,1,-1,0,1054.4073,741.74568)">
          <path
             style="fill:none;stroke:#2acaff;stroke-width:1px;stroke-linecap:butt;stroke-linejoin:miter;stroke-opacity:1"
             d="m -72.954934,960.93354 889.999994,0"
             id="path4689"
             inkscape:connector-curvature="0"
             sodipodi:nodetypes="cc" />
          <path
             sodipodi:nodetypes="cc"
             inkscape:connector-curvature="0"
             id="path4691"
             d="m -72.954932,981.64787 889.999992,0"
             style="fill:none;stroke:#2acaff;stroke-width:1px;stroke-linecap:butt;stroke-linejoin:miter;stroke-opacity:1" />
          <path
             style="fill:none;stroke:#2acaff;stroke-width:1px;stroke-linecap:butt;stroke-linejoin:miter;stroke-opacity:1"
             d="m -72.954934,1002.3622 889.999994,0"
             id="path4693"
             inkscape:connector-curvature="0"
             sodipodi:nodetypes="cc" />
          <path
             sodipodi:nodetypes="cc"
             inkscape:connector-curvature="0"
             id="path4695"
             d="m -72.954934,1023.0765 889.999994,0"
             style="fill:none;stroke:#2acaff;stroke-width:1px;stroke-linecap:butt;stroke-linejoin:miter;stroke-opacity:1" />
          <path
             style="fill:none;stroke:#2acaff;stroke-width:1px;stroke-linecap:butt;stroke-linejoin:miter;stroke-opacity:1"
             d="m -72.954936,1043.7908 889.999996,0"
             id="path4697"
             inkscape:connector-curvature="0"
             sodipodi:nodetypes="cc" />
        </g>
        <g
           transform="matrix(0,1,-1,0,1160.4073,738.88854)"
           id="g4699">
          <path
             sodipodi:nodetypes="cc"
             inkscape:connector-curvature="0"
             id="path4701"
             d="m -72.954934,960.93354 889.999994,0"
             style="fill:none;stroke:#2acaff;stroke-width:1px;stroke-linecap:butt;stroke-linejoin:miter;stroke-opacity:1" />
          <path
             style="fill:none;stroke:#2acaff;stroke-width:1px;stroke-linecap:butt;stroke-linejoin:miter;stroke-opacity:1"
             d="m -72.954932,981.64787 889.999992,0"
             id="path4703"
             inkscape:connector-curvature="0"
             sodipodi:nodetypes="cc" />
          <path
             sodipodi:nodetypes="cc"
             inkscape:connector-curvature="0"
             id="path4705"
             d="m -72.954934,1002.3622 889.999994,0"
             style="fill:none;stroke:#2acaff;stroke-width:1px;stroke-linecap:butt;stroke-linejoin:miter;stroke-opacity:1" />
          <path
             style="fill:none;stroke:#2acaff;stroke-width:1px;stroke-linecap:butt;stroke-linejoin:miter;stroke-opacity:1"
             d="m -72.954934,1023.0765 889.999994,0"
             id="path4707"
             inkscape:connector-curvature="0"
             sodipodi:nodetypes="cc" />
          <path
             sodipodi:nodetypes="cc"
             inkscape:connector-curvature="0"
             id="path4709"
             d="m -72.954936,1043.7908 889.999996,0"
             style="fill:none;stroke:#2acaff;stroke-width:1px;stroke-linecap:butt;stroke-linejoin:miter;stroke-opacity:1" />
        </g>
      </g>
    </g>
    <g
       id="g4795">
      <path
         style="fill:#000000;fill-opacity:1;stroke:none;filter:url(#filter4791)"
         d="M -0.41841885,974.83208 C 10.057772,974.83208 19.52381,984.93361 30,984.93361 c 1.39858,0 8.691078,0.26178 10,0 1.044117,-0.20883 1.824141,-1.17032 2.857143,-1.42857 0.923945,-0.23099 1.953635,0.30117 2.857143,0 0.638876,-0.21296 0.826233,-1.12741 1.428571,-1.42857 0.425918,-0.21296 1.002654,0.21295 1.428572,0 0.602338,-0.30117 0.826232,-1.12741 1.428571,-1.42858 0.425918,-0.21296 0.976818,0.15059 1.428571,0 1.010153,-0.33671 1.846991,-1.09185 2.857143,-1.42857 0.899142,-0.29971 5.855194,0 7.142857,0 1.428572,0 2.930453,-0.45175 4.285715,0 0.638876,0.21296 0.826233,1.1274 1.428571,1.42857 0.425918,0.21296 1.002654,-0.21296 1.428572,0 0.602338,0.30117 0.789694,1.21562 1.428571,1.42858 0.903508,0.30116 1.953635,-0.30117 2.857143,0 1.277753,0.42591 1.736479,2.11003 2.857143,2.85714 0.885962,0.59064 2.005307,0.78969 2.857143,1.42857 1.077496,0.80812 1.736479,2.11003 2.857142,2.85714 0.792429,0.52829 2.005308,-0.42592 2.857143,0 0.602339,0.30117 0.826233,1.1274 1.428572,1.42857 0.425917,0.21296 0.952381,0 1.428571,0 0.476191,0 0.952381,0 1.428572,0 2.857142,0 5.714285,0 8.571428,0 3.333333,0 6.666663,0 10.000003,0 0.95238,0 1.95363,0.30117 2.85714,0 1.01015,-0.33671 1.84699,-1.09185 2.85714,-1.42857 1.10836,-0.36945 6.33547,0.20185 7.14286,0 0.65333,-0.16333 0.82623,-1.1274 1.42857,-1.42857 0.85184,-0.42592 2.00531,0.42592 2.85714,0 0.60234,-0.30117 0.95239,-0.95238 1.42858,-1.42857 0.95238,-0.95238 1.73648,-2.11003 2.85714,-2.85714 0.39621,-0.26415 1.00265,0.21296 1.42857,0 0.60234,-0.30117 0.82623,-1.12741 1.42857,-1.42857 0.42592,-0.21296 0.97682,0.15058 1.42857,0 1.01016,-0.33672 1.82414,-1.17033 2.85715,-1.42858 0.92394,-0.23098 1.90476,0 2.85714,0 0.47619,0 1.00265,0.21296 1.42857,0 0.60234,-0.30117 0.82623,-1.1274 1.42857,-1.42857 0.85184,-0.42592 2.00531,0.42592 2.85714,0 0.60234,-0.30117 0.82624,-1.1274 1.42858,-1.42857 0.42591,-0.21296 1.00265,0.21296 1.42857,0 0.60234,-0.30117 0.78969,-1.21561 1.42857,-1.42857 0.90351,-0.30117 1.90476,0 2.85714,0 0.47619,0 1.00266,0.21296 1.42857,0 0.60234,-0.30117 0.95238,-0.95238 1.42857,-1.42857 0.95239,0 1.95364,0.30117 2.85715,0 0.63887,-0.21296 0.78969,-1.21561 1.42857,-1.42857 1.80701,-0.60234 3.90727,0.60234 5.71428,0 0.63888,-0.21296 0.82624,-1.12741 1.42858,-1.42857 0.94675,-0.47338 4.51696,0.3991 5.71428,0 1.01015,-0.33672 1.82414,-1.17033 2.85714,-1.42858 1.08638,-0.27159 5.94659,0 7.14286,0 3.80953,0 7.61905,0 11.42857,0 5.2381,0 10.47619,0 15.71429,0 0.47619,0 0.95238,0 1.42857,0 0.47619,0 1.09185,-0.33671 1.42857,0 0.33672,0.33672 -0.33672,1.09186 0,1.42858 0.67344,0.67343 2.18371,-0.67344 2.85714,0 0.33672,0.33671 -0.33671,1.09185 0,1.42857 0.67344,0.67343 2.18371,-0.67344 2.85715,0 0.33671,0.33671 -0.33672,1.09185 0,1.42857 0.33671,0.33672 1.09185,-0.33672 1.42857,0 0.33672,0.33672 -0.42592,1.21561 0,1.42857 0.85183,0.42592 1.9332,-0.23099 2.85714,0 1.033,0.25825 1.82414,1.17032 2.85714,1.42857 0.92395,0.23099 1.9332,-0.23099 2.85715,0 1.033,0.25825 1.82414,1.17032 2.85714,1.42857 2.1164,0.5291 5.15873,-0.79365 7.14286,0 1.25053,0.50022 1.6066,2.35693 2.85714,2.85715 1.3264,0.53055 2.85714,0 4.28571,0 1.42858,0 2.85715,0 4.28572,0 0.47619,0 0.95238,0 1.42857,0 0.47619,0 1.09185,-0.33672 1.42857,0 0.33672,0.33671 -0.33672,1.09185 0,1.42857 0.33672,0.33671 0.95238,0 1.42857,0 0,0.47619 -0.33671,1.09185 0,1.42857 0.33672,0.33672 0.97682,-0.15059 1.42857,0 1.01016,0.33672 1.90477,0.95238 2.85715,1.42857 0.95238,0.47619 2.0053,0.7897 2.85714,1.42857 1.61624,1.21218 2.60472,3.16505 4.28571,4.28572 0.26611,0.1774 5.62275,2.7656 5.71429,2.85714 0.75292,0.75292 0.67565,2.10419 1.42857,2.85719 0.33672,0.3367 1.00266,-0.213 1.42857,0 0.60234,0.3011 0.82624,1.1274 1.42857,1.4285 0.42592,0.213 1.09186,-0.3367 1.42858,0 2.95576,2.9558 -4.5168,-0.1155 1.42857,2.8572 0.52728,0.2636 7.32703,0 8.57143,0 1.84266,0 9.02957,0.3234 10,0 3.46461,-1.1549 3.80514,-3.4513 7.14285,-4.2857 3.01765,-0.7545 3.01634,1.2693 5.71429,-1.4286 0.75292,-0.75294 0.54261,-2.26652 1.42857,-2.85716 0.79243,-0.52829 1.95364,0.30117 2.85714,0 0.63888,-0.21296 0.86824,-1.05502 1.42857,-1.42857 0.88597,-0.59065 1.84699,-1.09186 2.85715,-1.42858 0.45175,-0.15058 1.21561,0.42592 1.42857,0 0.42592,-0.85183 -0.42592,-2.0053 0,-2.85714 0.21296,-0.42592 1.00265,0.21296 1.42857,0 0.60234,-0.30117 0.7897,-1.21561 1.42857,-1.42857 1.80702,-0.60234 3.90727,0.60234 5.71429,0 0.63887,-0.21296 0.78969,-1.21561 1.42857,-1.42857 1.35526,-0.45176 2.85714,0 4.28571,0 0.33948,0 5.3941,0.16009 5.71429,0 0.60234,-0.30117 0.78969,-1.21561 1.42857,-1.42857 0.90351,-0.30117 1.90476,0 2.85714,0 0.47619,0 1.00266,0.21296 1.42857,0 0.60234,-0.30117 0.82624,-1.12741 1.42858,-1.42857 0.84288,-0.42145 3.30309,0.32753 4.28571,0 1.01015,-0.33672 1.84699,-1.09186 2.85714,-1.42858 0.20328,-0.0678 8.03316,-0.26913 8.57143,0 0.60234,0.30117 0.82623,1.12741 1.42857,1.42858 0.42592,0.21295 0.95238,0 1.42857,0 0.47619,0 0.95239,0 1.42858,0 2.38095,0 4.7619,0 7.14285,0 1.42857,0 2.93046,-0.45176 4.28572,0 0.63887,0.21295 0.82623,1.1274 1.42857,1.42857 0.94119,0.47059 7.25034,-0.44037 8.57143,0 0.63887,0.21296 0.78969,1.21561 1.42857,1.42857 0.79002,0.26334 7.13278,0 8.57143,0 0.47619,0 0.97681,-0.15059 1.42857,0 5.75601,1.91867 0.57353,2.42962 4.28571,4.28571 0.42592,0.21296 0.95238,0 1.42857,0 0.95239,0 1.90477,0 2.85715,0 2.85714,0 5.71428,0 8.57143,0 5.23809,0 10.47619,0 15.71428,0 1.90476,0 3.83544,0.31314 5.71429,0 1.0503,-0.17505 1.90476,-0.95238 2.85714,-1.42857 0.95238,-0.47619 1.97118,-0.83793 2.85714,-1.42857 0.56033,-0.37356 0.82624,-1.1274 1.42857,-1.42857 0.85184,-0.42592 1.95364,0.30117 2.85715,0 10.34774,-3.44925 -2.2523,0.41186 4.28571,-2.85714 0.42592,-0.21296 1.00266,0.21295 1.42857,0 0.60234,-0.30117 0.82624,-1.12741 1.42857,-1.42858 0.86747,-0.43373 7.70397,0.43374 8.57143,0 0.60234,-0.30117 0.82624,-1.1274 1.42857,-1.42857 0.86747,-0.43373 7.70397,0.43373 8.57143,0 0.60234,-0.30117 0.82624,-1.1274 1.42857,-1.42857 0.42592,-0.21296 1.00266,0.21296 1.42858,0 6.53801,-3.269 -6.06203,0.5921 4.28571,-2.85714 1.51802,-0.50601 4.19627,0.506 5.71429,0 0.63887,-0.21296 0.78969,-1.21561 1.42857,-1.42857 0.90351,-0.30117 1.90476,0 2.85714,0 1.90476,0 3.80952,0 5.71429,0 1.21235,0 7.78388,-0.26252 8.57142,0 0.63888,0.21296 0.82624,1.1274 1.42858,1.42857 0.42591,0.21296 0.97681,-0.15059 1.42857,0 1.01015,0.33672 1.84699,1.09185 2.85714,1.42857 0.78761,0.26254 5.40886,-0.30543 5.71429,0 0.33671,0.33672 -0.33672,1.09185 0,1.42857 0.008,0.008 4.23795,-0.0119 4.28571,0 1.033,0.25825 1.84699,1.09185 2.85714,1.42857 0.45176,0.15059 0.97682,-0.15058 1.42857,0 1.01016,0.33672 1.82415,1.17032 2.85715,1.42857 0.92394,0.23099 1.90476,0 2.85714,0 1.90476,0 3.80952,0 5.71429,0 2.85714,0 5.71428,0 8.57142,0 0.93873,0 3.47972,0.26867 4.28572,0 1.01015,-0.33671 1.82414,-1.17032 2.85714,-1.42857 0.92395,-0.23098 1.95364,0.30117 2.85714,0 0.63888,-0.21296 0.82624,-1.1274 1.42858,-1.42857 0.42591,-0.21296 0.97681,0.15059 1.42857,0 1.01015,-0.33672 1.84699,-1.09185 2.85714,-1.42857 0.90351,-0.30117 2.00531,0.42592 2.85714,0 0.60234,-0.30117 0.82624,-1.1274 1.42857,-1.42857 0.85184,-0.42592 1.95364,0.30117 2.85715,0 1.01015,-0.33672 1.84699,-1.09186 2.85714,-1.42857 0.31481,-0.10494 8.09882,-0.11816 8.57143,0 6.89849,1.72462 -0.0708,0.67888 4.28571,2.85714 0.42592,0.21296 0.97682,-0.15059 1.42857,0 1.01016,0.33672 1.84699,1.09185 2.85715,1.42857 0.806,0.26867 3.34699,0 4.28571,0 2.38095,0 4.76191,0 7.14286,0 1.90476,0 3.83544,-0.31314 5.71428,0 1.05031,0.17505 1.84699,1.09185 2.85715,1.42857 8.12767,2.70923 3.12112,0.10559 10,2.85715 1.97727,0.7909 3.64828,2.34064 5.71428,2.85714 6.50327,0 0.0817,-0.67344 4.28572,1.42857 0.85183,0.42592 2.0053,-0.42592 2.85714,0 0.60234,0.30117 0.7897,1.21561 1.42857,1.42857 1.35526,0.45175 2.85714,0 4.28572,0 2.38095,0 4.7619,0 7.14285,0 3.80953,0 7.61905,0 11.42857,0 1.42858,0 2.85715,0 4.28572,0 0.95238,0 1.9332,0.23099 2.85714,0 5.42987,-1.35747 0.28442,-1.49968 5.71429,-2.85714 1.84789,-0.46197 3.86639,0.46197 5.71428,0 1.03301,-0.25825 1.84699,-1.09186 2.85715,-1.42857 0.92559,-0.30854 5.97328,0 7.14285,0 3.80953,0 7.61905,0 11.42857,0 8.12429,0 0.94052,0.63887 7.14286,-1.42857 1.51802,-0.50601 4.19627,0.506 5.71429,0 1.01015,-0.33672 1.84699,-1.09186 2.85714,-1.42858 1.14986,-0.38328 4.8014,0.45645 5.71429,0 0.60233,-0.30117 0.82623,-1.1274 1.42857,-1.42857 0.89789,-0.44894 4.81639,0.44895 5.71428,0 0.60234,-0.30117 0.82624,-1.1274 1.42857,-1.42857 0.42592,-0.21296 0.95239,0 1.42858,0 0.47619,-0.47619 0.82623,-1.1274 1.42857,-1.42857 0.85183,-0.42592 2.0053,0.42592 2.85714,0 0.60234,-0.30117 0.82623,-1.1274 1.42857,-1.42857 0.42592,-0.21296 1.00266,0.21296 1.42857,0 0.60234,-0.30117 0.82624,-1.1274 1.42857,-1.42857 0.42592,-0.21296 1.00266,0.21296 1.42858,0 0.60233,-0.30117 0.82623,-1.12741 1.42857,-1.42857 0.51662,-0.25831 6.14923,0 7.14285,0 5.52309,0 5.86908,0 8.57143,0 0.47619,0 1.42857,-0.4762 1.42857,0 0,0.47619 -1.42857,0.47619 -1.42857,0 0,-0.4762 1.21562,0.42591 1.42857,0 0.42592,-0.85184 -0.18677,-1.92326 0,-2.85715 0.29533,-1.4766 1.13326,-2.80911 1.42858,-4.28571 0.37355,-1.86777 0,-3.80953 0,-5.71429 0,-3.33333 0,-6.66666 0,-10 0,-0.64627 -0.19036,-8.19071 0,-8.57143 0.30117,-0.60233 1.1274,-0.82623 1.42857,-1.42857 0.21296,-0.42591 0,-0.95238 0,-1.42857 0,-0.95238 0,-1.90476 0,-2.85714 0,-4.28572 0,-8.57143 0,-12.85714 0,-0.46638 0.30682,-6.83604 0,-7.14286 -8.44027,-8.44026 -28.19905,-6.66316 -35.71429,-7.14286 -30.94063,-1.97493 -51.38639,-1.42857 -82.85714,-1.42857 -14.76191,0 -29.52381,0 -44.28572,0 -15.23809,0 -30.47817,-0.24574 -45.71428,0 -114.14453,1.84104 22.46636,1.42857 -80,1.42857 -10.47619,0 -20.98857,0.87 -31.42857,0 -6.79446,-0.5662 -13.36034,-2.73646 -20,-4.28571 -51.22804,-11.95321 3.92156,1.00321 -42.85715,-12.85715 -6.09141,-1.80486 -12.40794,-2.74484 -18.57142,-4.28571 -3.36322,-0.8408 -6.5892,-2.237 -10,-2.85714 -2.41246,-0.43863 -7.1896,0 -10,0 -10.95239,0 -21.91046,-0.35312 -32.85715,0 -8.58018,0.27678 -17.19933,0.33691 -25.71428,1.42857 -14.74693,1.89063 -39.22567,7.77765 -54.28572,11.42857 -7.63246,1.85029 -15.18285,4.04596 -22.85714,5.71429 -3.29032,0.71528 -6.87366,0.17803 -10,1.42857 -13.65751,-5.49238 -2.15613,4.64949 -4.28571,5.71428 -0.85184,0.42592 -1.90477,0 -2.85715,0 -4.7619,0 -9.52381,0 -14.28571,0 -7.61905,0 -15.2381,0 -22.85714,0 -2.38096,0 -4.78029,-0.29532 -7.14286,0 -1.49422,0.18678 -2.85714,0.95238 -4.28572,1.42857 -1.42857,0.47619 -2.93884,0.75514 -4.28571,1.42858 -1.95125,0.97562 -0.62364,1.98694 -2.85714,1.42857 -8.72184,-2.18046 -15.58003,-4.92286 -24.28572,-5.71429 -4.052454,-0.3684 -9.937178,0 -14.285711,0 -8.571429,0 -17.142858,0 -25.714286,0 -3.887878,0 -15.004957,0.45812 -17.142857,0 -3.546058,-0.75987 -6.533812,-3.21919 -10,-4.28571 C 32.945821,902.6532 30,902.55266 27.142857,902.07647 c -2.857143,-0.4762 -5.721597,-0.91043 -8.571428,-1.42858 -2.388939,-0.43435 -4.726803,-1.18696 -7.142858,-1.42857 -2.3691357,-0.23691 -4.7802903,0.29532 -7.1428567,0 -8.3601663,-1.04502 -0.7720573,-1.26444 -7.1428572,-2.85714 -0.6374418,-0.15936 -9.7741561,-0.0753 -10.0000001,0 -2.194442,0.73148 -1.106931,3.11891 -2.857143,4.28571 -0.792429,0.52829 -1.953635,-0.30117 -2.857143,0 -0.638876,0.21296 -0.826232,1.12741 -1.428571,1.42858 -0.425918,0.21295 -0.976817,-0.15059 -1.428571,0 -1.892009,0.63066 -4.555783,2.54795 -5.714286,4.28571 -2.056489,3.08473 -2.229226,6.91527 -4.285714,10 -0.74711,1.12066 -2.254805,1.65247 -2.857143,2.85714 -0.249018,0.49804 0,7.52275 0,8.57143 0,2.38095 0,4.76191 0,7.14286 0,0.95238 0,1.90476 0,2.85714 0,0.47619 -0.212959,1.00266 0,1.42857 0.301169,0.60234 1.127402,0.82624 1.428571,1.42857 0.425918,0.85184 -0.301169,1.95364 0,2.85715 0.336718,1.01015 1.091854,1.84699 1.428572,2.85714 0.150584,0.45175 -0.336718,1.09185 0,1.42857 0.336717,0.33672 1.091853,-0.33672 1.428571,0 0.390889,0.39089 -0.387491,4.9393 0,5.71429 0.301169,0.60234 0.952381,0.95238 1.428571,1.42857 0,0.95238 -0.301169,1.95363 0,2.85714 5.448745,9.52074 20.2014775,9.48446 28.15301015,17.04133 z"
         id="path4765"
         inkscape:connector-curvature="0"
         sodipodi:nodetypes="csssssssssssssssssssssssssssssssssssssssssssscsssssssssssssscssssssssssssssccsssccsssssssssssssssssssssssssssssssssssssssssssssssssscssssssssssssssccsssssssssssssssssssssssssscsssssssssssssssssssscsssssssssssccsssssssssssssssssssssssscssssssssssssssssssssssssssssssssssssccc" />
      <path
         sodipodi:nodetypes="csssssssssssssssssssssssssssssssssssssssssssscsssssssssssssscssssssssssssssccsssccsssssssssssssssssssssssssssssssssssssssssssssssssscssssssssssssssccsssssssssssssssssssssssssscsssssssssssssssssssscsssssssssssccsssssssssssssssssssssssscssssssssssssssssssssssssssssssssssssccc"
         inkscape:connector-curvature="0"
         id="path4713"
         d="M -0.41841885,974.83208 C 10.057772,974.83208 19.52381,984.93361 30,984.93361 c 1.39858,0 8.691078,0.26178 10,0 1.044117,-0.20883 1.824141,-1.17032 2.857143,-1.42857 0.923945,-0.23099 1.953635,0.30117 2.857143,0 0.638876,-0.21296 0.826233,-1.12741 1.428571,-1.42857 0.425918,-0.21296 1.002654,0.21295 1.428572,0 0.602338,-0.30117 0.826232,-1.12741 1.428571,-1.42858 0.425918,-0.21296 0.976818,0.15059 1.428571,0 1.010153,-0.33671 1.846991,-1.09185 2.857143,-1.42857 0.899142,-0.29971 5.855194,0 7.142857,0 1.428572,0 2.930453,-0.45175 4.285715,0 0.638876,0.21296 0.826233,1.1274 1.428571,1.42857 0.425918,0.21296 1.002654,-0.21296 1.428572,0 0.602338,0.30117 0.789694,1.21562 1.428571,1.42858 0.903508,0.30116 1.953635,-0.30117 2.857143,0 1.277753,0.42591 1.736479,2.11003 2.857143,2.85714 0.885962,0.59064 2.005307,0.78969 2.857143,1.42857 1.077496,0.80812 1.736479,2.11003 2.857142,2.85714 0.792429,0.52829 2.005308,-0.42592 2.857143,0 0.602339,0.30117 0.826233,1.1274 1.428572,1.42857 0.425917,0.21296 0.952381,0 1.428571,0 0.476191,0 0.952381,0 1.428572,0 2.857142,0 5.714285,0 8.571428,0 3.333333,0 6.666663,0 10.000003,0 0.95238,0 1.95363,0.30117 2.85714,0 1.01015,-0.33671 1.84699,-1.09185 2.85714,-1.42857 1.10836,-0.36945 6.33547,0.20185 7.14286,0 0.65333,-0.16333 0.82623,-1.1274 1.42857,-1.42857 0.85184,-0.42592 2.00531,0.42592 2.85714,0 0.60234,-0.30117 0.95239,-0.95238 1.42858,-1.42857 0.95238,-0.95238 1.73648,-2.11003 2.85714,-2.85714 0.39621,-0.26415 1.00265,0.21296 1.42857,0 0.60234,-0.30117 0.82623,-1.12741 1.42857,-1.42857 0.42592,-0.21296 0.97682,0.15058 1.42857,0 1.01016,-0.33672 1.82414,-1.17033 2.85715,-1.42858 0.92394,-0.23098 1.90476,0 2.85714,0 0.47619,0 1.00265,0.21296 1.42857,0 0.60234,-0.30117 0.82623,-1.1274 1.42857,-1.42857 0.85184,-0.42592 2.00531,0.42592 2.85714,0 0.60234,-0.30117 0.82624,-1.1274 1.42858,-1.42857 0.42591,-0.21296 1.00265,0.21296 1.42857,0 0.60234,-0.30117 0.78969,-1.21561 1.42857,-1.42857 0.90351,-0.30117 1.90476,0 2.85714,0 0.47619,0 1.00266,0.21296 1.42857,0 0.60234,-0.30117 0.95238,-0.95238 1.42857,-1.42857 0.95239,0 1.95364,0.30117 2.85715,0 0.63887,-0.21296 0.78969,-1.21561 1.42857,-1.42857 1.80701,-0.60234 3.90727,0.60234 5.71428,0 0.63888,-0.21296 0.82624,-1.12741 1.42858,-1.42857 0.94675,-0.47338 4.51696,0.3991 5.71428,0 1.01015,-0.33672 1.82414,-1.17033 2.85714,-1.42858 1.08638,-0.27159 5.94659,0 7.14286,0 3.80953,0 7.61905,0 11.42857,0 5.2381,0 10.47619,0 15.71429,0 0.47619,0 0.95238,0 1.42857,0 0.47619,0 1.09185,-0.33671 1.42857,0 0.33672,0.33672 -0.33672,1.09186 0,1.42858 0.67344,0.67343 2.18371,-0.67344 2.85714,0 0.33672,0.33671 -0.33671,1.09185 0,1.42857 0.67344,0.67343 2.18371,-0.67344 2.85715,0 0.33671,0.33671 -0.33672,1.09185 0,1.42857 0.33671,0.33672 1.09185,-0.33672 1.42857,0 0.33672,0.33672 -0.42592,1.21561 0,1.42857 0.85183,0.42592 1.9332,-0.23099 2.85714,0 1.033,0.25825 1.82414,1.17032 2.85714,1.42857 0.92395,0.23099 1.9332,-0.23099 2.85715,0 1.033,0.25825 1.82414,1.17032 2.85714,1.42857 2.1164,0.5291 5.15873,-0.79365 7.14286,0 1.25053,0.50022 1.6066,2.35693 2.85714,2.85715 1.3264,0.53055 2.85714,0 4.28571,0 1.42858,0 2.85715,0 4.28572,0 0.47619,0 0.95238,0 1.42857,0 0.47619,0 1.09185,-0.33672 1.42857,0 0.33672,0.33671 -0.33672,1.09185 0,1.42857 0.33672,0.33671 0.95238,0 1.42857,0 0,0.47619 -0.33671,1.09185 0,1.42857 0.33672,0.33672 0.97682,-0.15059 1.42857,0 1.01016,0.33672 1.90477,0.95238 2.85715,1.42857 0.95238,0.47619 2.0053,0.7897 2.85714,1.42857 1.61624,1.21218 2.60472,3.16505 4.28571,4.28572 0.26611,0.1774 5.62275,2.7656 5.71429,2.85714 0.75292,0.75292 0.67565,2.10419 1.42857,2.85719 0.33672,0.3367 1.00266,-0.213 1.42857,0 0.60234,0.3011 0.82624,1.1274 1.42857,1.4285 0.42592,0.213 1.09186,-0.3367 1.42858,0 2.95576,2.9558 -4.5168,-0.1155 1.42857,2.8572 0.52728,0.2636 7.32703,0 8.57143,0 1.84266,0 9.02957,0.3234 10,0 3.46461,-1.1549 3.80514,-3.4513 7.14285,-4.2857 3.01765,-0.7545 3.01634,1.2693 5.71429,-1.4286 0.75292,-0.75294 0.54261,-2.26652 1.42857,-2.85716 0.79243,-0.52829 1.95364,0.30117 2.85714,0 0.63888,-0.21296 0.86824,-1.05502 1.42857,-1.42857 0.88597,-0.59065 1.84699,-1.09186 2.85715,-1.42858 0.45175,-0.15058 1.21561,0.42592 1.42857,0 0.42592,-0.85183 -0.42592,-2.0053 0,-2.85714 0.21296,-0.42592 1.00265,0.21296 1.42857,0 0.60234,-0.30117 0.7897,-1.21561 1.42857,-1.42857 1.80702,-0.60234 3.90727,0.60234 5.71429,0 0.63887,-0.21296 0.78969,-1.21561 1.42857,-1.42857 1.35526,-0.45176 2.85714,0 4.28571,0 0.33948,0 5.3941,0.16009 5.71429,0 0.60234,-0.30117 0.78969,-1.21561 1.42857,-1.42857 0.90351,-0.30117 1.90476,0 2.85714,0 0.47619,0 1.00266,0.21296 1.42857,0 0.60234,-0.30117 0.82624,-1.12741 1.42858,-1.42857 0.84288,-0.42145 3.30309,0.32753 4.28571,0 1.01015,-0.33672 1.84699,-1.09186 2.85714,-1.42858 0.20328,-0.0678 8.03316,-0.26913 8.57143,0 0.60234,0.30117 0.82623,1.12741 1.42857,1.42858 0.42592,0.21295 0.95238,0 1.42857,0 0.47619,0 0.95239,0 1.42858,0 2.38095,0 4.7619,0 7.14285,0 1.42857,0 2.93046,-0.45176 4.28572,0 0.63887,0.21295 0.82623,1.1274 1.42857,1.42857 0.94119,0.47059 7.25034,-0.44037 8.57143,0 0.63887,0.21296 0.78969,1.21561 1.42857,1.42857 0.79002,0.26334 7.13278,0 8.57143,0 0.47619,0 0.97681,-0.15059 1.42857,0 5.75601,1.91867 0.57353,2.42962 4.28571,4.28571 0.42592,0.21296 0.95238,0 1.42857,0 0.95239,0 1.90477,0 2.85715,0 2.85714,0 5.71428,0 8.57143,0 5.23809,0 10.47619,0 15.71428,0 1.90476,0 3.83544,0.31314 5.71429,0 1.0503,-0.17505 1.90476,-0.95238 2.85714,-1.42857 0.95238,-0.47619 1.97118,-0.83793 2.85714,-1.42857 0.56033,-0.37356 0.82624,-1.1274 1.42857,-1.42857 0.85184,-0.42592 1.95364,0.30117 2.85715,0 10.34774,-3.44925 -2.2523,0.41186 4.28571,-2.85714 0.42592,-0.21296 1.00266,0.21295 1.42857,0 0.60234,-0.30117 0.82624,-1.12741 1.42857,-1.42858 0.86747,-0.43373 7.70397,0.43374 8.57143,0 0.60234,-0.30117 0.82624,-1.1274 1.42857,-1.42857 0.86747,-0.43373 7.70397,0.43373 8.57143,0 0.60234,-0.30117 0.82624,-1.1274 1.42857,-1.42857 0.42592,-0.21296 1.00266,0.21296 1.42858,0 6.53801,-3.269 -6.06203,0.5921 4.28571,-2.85714 1.51802,-0.50601 4.19627,0.506 5.71429,0 0.63887,-0.21296 0.78969,-1.21561 1.42857,-1.42857 0.90351,-0.30117 1.90476,0 2.85714,0 1.90476,0 3.80952,0 5.71429,0 1.21235,0 7.78388,-0.26252 8.57142,0 0.63888,0.21296 0.82624,1.1274 1.42858,1.42857 0.42591,0.21296 0.97681,-0.15059 1.42857,0 1.01015,0.33672 1.84699,1.09185 2.85714,1.42857 0.78761,0.26254 5.40886,-0.30543 5.71429,0 0.33671,0.33672 -0.33672,1.09185 0,1.42857 0.008,0.008 4.23795,-0.0119 4.28571,0 1.033,0.25825 1.84699,1.09185 2.85714,1.42857 0.45176,0.15059 0.97682,-0.15058 1.42857,0 1.01016,0.33672 1.82415,1.17032 2.85715,1.42857 0.92394,0.23099 1.90476,0 2.85714,0 1.90476,0 3.80952,0 5.71429,0 2.85714,0 5.71428,0 8.57142,0 0.93873,0 3.47972,0.26867 4.28572,0 1.01015,-0.33671 1.82414,-1.17032 2.85714,-1.42857 0.92395,-0.23098 1.95364,0.30117 2.85714,0 0.63888,-0.21296 0.82624,-1.1274 1.42858,-1.42857 0.42591,-0.21296 0.97681,0.15059 1.42857,0 1.01015,-0.33672 1.84699,-1.09185 2.85714,-1.42857 0.90351,-0.30117 2.00531,0.42592 2.85714,0 0.60234,-0.30117 0.82624,-1.1274 1.42857,-1.42857 0.85184,-0.42592 1.95364,0.30117 2.85715,0 1.01015,-0.33672 1.84699,-1.09186 2.85714,-1.42857 0.31481,-0.10494 8.09882,-0.11816 8.57143,0 6.89849,1.72462 -0.0708,0.67888 4.28571,2.85714 0.42592,0.21296 0.97682,-0.15059 1.42857,0 1.01016,0.33672 1.84699,1.09185 2.85715,1.42857 0.806,0.26867 3.34699,0 4.28571,0 2.38095,0 4.76191,0 7.14286,0 1.90476,0 3.83544,-0.31314 5.71428,0 1.05031,0.17505 1.84699,1.09185 2.85715,1.42857 8.12767,2.70923 3.12112,0.10559 10,2.85715 1.97727,0.7909 3.64828,2.34064 5.71428,2.85714 6.50327,0 0.0817,-0.67344 4.28572,1.42857 0.85183,0.42592 2.0053,-0.42592 2.85714,0 0.60234,0.30117 0.7897,1.21561 1.42857,1.42857 1.35526,0.45175 2.85714,0 4.28572,0 2.38095,0 4.7619,0 7.14285,0 3.80953,0 7.61905,0 11.42857,0 1.42858,0 2.85715,0 4.28572,0 0.95238,0 1.9332,0.23099 2.85714,0 5.42987,-1.35747 0.28442,-1.49968 5.71429,-2.85714 1.84789,-0.46197 3.86639,0.46197 5.71428,0 1.03301,-0.25825 1.84699,-1.09186 2.85715,-1.42857 0.92559,-0.30854 5.97328,0 7.14285,0 3.80953,0 7.61905,0 11.42857,0 8.12429,0 0.94052,0.63887 7.14286,-1.42857 1.51802,-0.50601 4.19627,0.506 5.71429,0 1.01015,-0.33672 1.84699,-1.09186 2.85714,-1.42858 1.14986,-0.38328 4.8014,0.45645 5.71429,0 0.60233,-0.30117 0.82623,-1.1274 1.42857,-1.42857 0.89789,-0.44894 4.81639,0.44895 5.71428,0 0.60234,-0.30117 0.82624,-1.1274 1.42857,-1.42857 0.42592,-0.21296 0.95239,0 1.42858,0 0.47619,-0.47619 0.82623,-1.1274 1.42857,-1.42857 0.85183,-0.42592 2.0053,0.42592 2.85714,0 0.60234,-0.30117 0.82623,-1.1274 1.42857,-1.42857 0.42592,-0.21296 1.00266,0.21296 1.42857,0 0.60234,-0.30117 0.82624,-1.1274 1.42857,-1.42857 0.42592,-0.21296 1.00266,0.21296 1.42858,0 0.60233,-0.30117 0.82623,-1.12741 1.42857,-1.42857 0.51662,-0.25831 6.14923,0 7.14285,0 5.52309,0 5.86908,0 8.57143,0 0.47619,0 1.42857,-0.4762 1.42857,0 0,0.47619 -1.42857,0.47619 -1.42857,0 0,-0.4762 1.21562,0.42591 1.42857,0 0.42592,-0.85184 -0.18677,-1.92326 0,-2.85715 0.29533,-1.4766 1.13326,-2.80911 1.42858,-4.28571 0.37355,-1.86777 0,-3.80953 0,-5.71429 0,-3.33333 0,-6.66666 0,-10 0,-0.64627 -0.19036,-8.19071 0,-8.57143 0.30117,-0.60233 1.1274,-0.82623 1.42857,-1.42857 0.21296,-0.42591 0,-0.95238 0,-1.42857 0,-0.95238 0,-1.90476 0,-2.85714 0,-4.28572 0,-8.57143 0,-12.85714 0,-0.46638 0.30682,-6.83604 0,-7.14286 -8.44027,-8.44026 -28.19905,-6.66316 -35.71429,-7.14286 -30.94063,-1.97493 -51.38639,-1.42857 -82.85714,-1.42857 -14.76191,0 -29.52381,0 -44.28572,0 -15.23809,0 -30.47817,-0.24574 -45.71428,0 -114.14453,1.84104 22.46636,1.42857 -80,1.42857 -10.47619,0 -20.98857,0.87 -31.42857,0 -6.79446,-0.5662 -13.36034,-2.73646 -20,-4.28571 -51.22804,-11.95321 3.92156,1.00321 -42.85715,-12.85715 -6.09141,-1.80486 -12.40794,-2.74484 -18.57142,-4.28571 -3.36322,-0.8408 -6.5892,-2.237 -10,-2.85714 -2.41246,-0.43863 -7.1896,0 -10,0 -10.95239,0 -21.91046,-0.35312 -32.85715,0 -8.58018,0.27678 -17.19933,0.33691 -25.71428,1.42857 -14.74693,1.89063 -39.22567,7.77765 -54.28572,11.42857 -7.63246,1.85029 -15.18285,4.04596 -22.85714,5.71429 -3.29032,0.71528 -6.87366,0.17803 -10,1.42857 -13.65751,-5.49238 -2.15613,4.64949 -4.28571,5.71428 -0.85184,0.42592 -1.90477,0 -2.85715,0 -4.7619,0 -9.52381,0 -14.28571,0 -7.61905,0 -15.2381,0 -22.85714,0 -2.38096,0 -4.78029,-0.29532 -7.14286,0 -1.49422,0.18678 -2.85714,0.95238 -4.28572,1.42857 -1.42857,0.47619 -2.93884,0.75514 -4.28571,1.42858 -1.95125,0.97562 -0.62364,1.98694 -2.85714,1.42857 -8.72184,-2.18046 -15.58003,-4.92286 -24.28572,-5.71429 -4.052454,-0.3684 -9.937178,0 -14.285711,0 -8.571429,0 -17.142858,0 -25.714286,0 -3.887878,0 -15.004957,0.45812 -17.142857,0 -3.546058,-0.75987 -6.533812,-3.21919 -10,-4.28571 C 32.945821,902.6532 30,902.55266 27.142857,902.07647 c -2.857143,-0.4762 -5.721597,-0.91043 -8.571428,-1.42858 -2.388939,-0.43435 -4.726803,-1.18696 -7.142858,-1.42857 -2.3691357,-0.23691 -4.7802903,0.29532 -7.1428567,0 -8.3601663,-1.04502 -0.7720573,-1.26444 -7.1428572,-2.85714 -0.6374418,-0.15936 -9.7741561,-0.0753 -10.0000001,0 -2.194442,0.73148 -1.106931,3.11891 -2.857143,4.28571 -0.792429,0.52829 -1.953635,-0.30117 -2.857143,0 -0.638876,0.21296 -0.826232,1.12741 -1.428571,1.42858 -0.425918,0.21295 -0.976817,-0.15059 -1.428571,0 -1.892009,0.63066 -4.555783,2.54795 -5.714286,4.28571 -2.056489,3.08473 -2.229226,6.91527 -4.285714,10 -0.74711,1.12066 -2.254805,1.65247 -2.857143,2.85714 -0.249018,0.49804 0,7.52275 0,8.57143 0,2.38095 0,4.76191 0,7.14286 0,0.95238 0,1.90476 0,2.85714 0,0.47619 -0.212959,1.00266 0,1.42857 0.301169,0.60234 1.127402,0.82624 1.428571,1.42857 0.425918,0.85184 -0.301169,1.95364 0,2.85715 0.336718,1.01015 1.091854,1.84699 1.428572,2.85714 0.150584,0.45175 -0.336718,1.09185 0,1.42857 0.336717,0.33672 1.091853,-0.33672 1.428571,0 0.390889,0.39089 -0.387491,4.9393 0,5.71429 0.301169,0.60234 0.952381,0.95238 1.428571,1.42857 0,0.95238 -0.301169,1.95363 0,2.85714 5.448745,9.52074 20.2014775,9.48446 28.15301015,17.04133 z"
         style="fill:#ffffff;fill-opacity:1;stroke:none;filter:url(#filter4761)" />
    </g>
    <g
       id="g4799"
       transform="matrix(-1,0,0,-1,740.88284,2019.5303)">
      <path
         sodipodi:nodetypes="csssssssssssssssssssssssssssssssssssssssssssscsssssssssssssscssssssssssssssccsssccsssssssssssssssssssssssssssssssssssssssssssssssssscssssssssssssssccsssssssssssssssssssssssssscsssssssssssssssssssscsssssssssssccsssssssssssssssssssssssscssssssssssssssssssssssssssssssssssssccc"
         inkscape:connector-curvature="0"
         id="path4801"
         d="M -0.41841885,974.83208 C 10.057772,974.83208 19.52381,984.93361 30,984.93361 c 1.39858,0 8.691078,0.26178 10,0 1.044117,-0.20883 1.824141,-1.17032 2.857143,-1.42857 0.923945,-0.23099 1.953635,0.30117 2.857143,0 0.638876,-0.21296 0.826233,-1.12741 1.428571,-1.42857 0.425918,-0.21296 1.002654,0.21295 1.428572,0 0.602338,-0.30117 0.826232,-1.12741 1.428571,-1.42858 0.425918,-0.21296 0.976818,0.15059 1.428571,0 1.010153,-0.33671 1.846991,-1.09185 2.857143,-1.42857 0.899142,-0.29971 5.855194,0 7.142857,0 1.428572,0 2.930453,-0.45175 4.285715,0 0.638876,0.21296 0.826233,1.1274 1.428571,1.42857 0.425918,0.21296 1.002654,-0.21296 1.428572,0 0.602338,0.30117 0.789694,1.21562 1.428571,1.42858 0.903508,0.30116 1.953635,-0.30117 2.857143,0 1.277753,0.42591 1.736479,2.11003 2.857143,2.85714 0.885962,0.59064 2.005307,0.78969 2.857143,1.42857 1.077496,0.80812 1.736479,2.11003 2.857142,2.85714 0.792429,0.52829 2.005308,-0.42592 2.857143,0 0.602339,0.30117 0.826233,1.1274 1.428572,1.42857 0.425917,0.21296 0.952381,0 1.428571,0 0.476191,0 0.952381,0 1.428572,0 2.857142,0 5.714285,0 8.571428,0 3.333333,0 6.666663,0 10.000003,0 0.95238,0 1.95363,0.30117 2.85714,0 1.01015,-0.33671 1.84699,-1.09185 2.85714,-1.42857 1.10836,-0.36945 6.33547,0.20185 7.14286,0 0.65333,-0.16333 0.82623,-1.1274 1.42857,-1.42857 0.85184,-0.42592 2.00531,0.42592 2.85714,0 0.60234,-0.30117 0.95239,-0.95238 1.42858,-1.42857 0.95238,-0.95238 1.73648,-2.11003 2.85714,-2.85714 0.39621,-0.26415 1.00265,0.21296 1.42857,0 0.60234,-0.30117 0.82623,-1.12741 1.42857,-1.42857 0.42592,-0.21296 0.97682,0.15058 1.42857,0 1.01016,-0.33672 1.82414,-1.17033 2.85715,-1.42858 0.92394,-0.23098 1.90476,0 2.85714,0 0.47619,0 1.00265,0.21296 1.42857,0 0.60234,-0.30117 0.82623,-1.1274 1.42857,-1.42857 0.85184,-0.42592 2.00531,0.42592 2.85714,0 0.60234,-0.30117 0.82624,-1.1274 1.42858,-1.42857 0.42591,-0.21296 1.00265,0.21296 1.42857,0 0.60234,-0.30117 0.78969,-1.21561 1.42857,-1.42857 0.90351,-0.30117 1.90476,0 2.85714,0 0.47619,0 1.00266,0.21296 1.42857,0 0.60234,-0.30117 0.95238,-0.95238 1.42857,-1.42857 0.95239,0 1.95364,0.30117 2.85715,0 0.63887,-0.21296 0.78969,-1.21561 1.42857,-1.42857 1.80701,-0.60234 3.90727,0.60234 5.71428,0 0.63888,-0.21296 0.82624,-1.12741 1.42858,-1.42857 0.94675,-0.47338 4.51696,0.3991 5.71428,0 1.01015,-0.33672 1.82414,-1.17033 2.85714,-1.42858 1.08638,-0.27159 5.94659,0 7.14286,0 3.80953,0 7.61905,0 11.42857,0 5.2381,0 10.47619,0 15.71429,0 0.47619,0 0.95238,0 1.42857,0 0.47619,0 1.09185,-0.33671 1.42857,0 0.33672,0.33672 -0.33672,1.09186 0,1.42858 0.67344,0.67343 2.18371,-0.67344 2.85714,0 0.33672,0.33671 -0.33671,1.09185 0,1.42857 0.67344,0.67343 2.18371,-0.67344 2.85715,0 0.33671,0.33671 -0.33672,1.09185 0,1.42857 0.33671,0.33672 1.09185,-0.33672 1.42857,0 0.33672,0.33672 -0.42592,1.21561 0,1.42857 0.85183,0.42592 1.9332,-0.23099 2.85714,0 1.033,0.25825 1.82414,1.17032 2.85714,1.42857 0.92395,0.23099 1.9332,-0.23099 2.85715,0 1.033,0.25825 1.82414,1.17032 2.85714,1.42857 2.1164,0.5291 5.15873,-0.79365 7.14286,0 1.25053,0.50022 1.6066,2.35693 2.85714,2.85715 1.3264,0.53055 2.85714,0 4.28571,0 1.42858,0 2.85715,0 4.28572,0 0.47619,0 0.95238,0 1.42857,0 0.47619,0 1.09185,-0.33672 1.42857,0 0.33672,0.33671 -0.33672,1.09185 0,1.42857 0.33672,0.33671 0.95238,0 1.42857,0 0,0.47619 -0.33671,1.09185 0,1.42857 0.33672,0.33672 0.97682,-0.15059 1.42857,0 1.01016,0.33672 1.90477,0.95238 2.85715,1.42857 0.95238,0.47619 2.0053,0.7897 2.85714,1.42857 1.61624,1.21218 2.60472,3.16505 4.28571,4.28572 0.26611,0.1774 5.62275,2.7656 5.71429,2.85714 0.75292,0.75292 0.67565,2.10419 1.42857,2.85719 0.33672,0.3367 1.00266,-0.213 1.42857,0 0.60234,0.3011 0.82624,1.1274 1.42857,1.4285 0.42592,0.213 1.09186,-0.3367 1.42858,0 2.95576,2.9558 -4.5168,-0.1155 1.42857,2.8572 0.52728,0.2636 7.32703,0 8.57143,0 1.84266,0 9.02957,0.3234 10,0 3.46461,-1.1549 3.80514,-3.4513 7.14285,-4.2857 3.01765,-0.7545 3.01634,1.2693 5.71429,-1.4286 0.75292,-0.75294 0.54261,-2.26652 1.42857,-2.85716 0.79243,-0.52829 1.95364,0.30117 2.85714,0 0.63888,-0.21296 0.86824,-1.05502 1.42857,-1.42857 0.88597,-0.59065 1.84699,-1.09186 2.85715,-1.42858 0.45175,-0.15058 1.21561,0.42592 1.42857,0 0.42592,-0.85183 -0.42592,-2.0053 0,-2.85714 0.21296,-0.42592 1.00265,0.21296 1.42857,0 0.60234,-0.30117 0.7897,-1.21561 1.42857,-1.42857 1.80702,-0.60234 3.90727,0.60234 5.71429,0 0.63887,-0.21296 0.78969,-1.21561 1.42857,-1.42857 1.35526,-0.45176 2.85714,0 4.28571,0 0.33948,0 5.3941,0.16009 5.71429,0 0.60234,-0.30117 0.78969,-1.21561 1.42857,-1.42857 0.90351,-0.30117 1.90476,0 2.85714,0 0.47619,0 1.00266,0.21296 1.42857,0 0.60234,-0.30117 0.82624,-1.12741 1.42858,-1.42857 0.84288,-0.42145 3.30309,0.32753 4.28571,0 1.01015,-0.33672 1.84699,-1.09186 2.85714,-1.42858 0.20328,-0.0678 8.03316,-0.26913 8.57143,0 0.60234,0.30117 0.82623,1.12741 1.42857,1.42858 0.42592,0.21295 0.95238,0 1.42857,0 0.47619,0 0.95239,0 1.42858,0 2.38095,0 4.7619,0 7.14285,0 1.42857,0 2.93046,-0.45176 4.28572,0 0.63887,0.21295 0.82623,1.1274 1.42857,1.42857 0.94119,0.47059 7.25034,-0.44037 8.57143,0 0.63887,0.21296 0.78969,1.21561 1.42857,1.42857 0.79002,0.26334 7.13278,0 8.57143,0 0.47619,0 0.97681,-0.15059 1.42857,0 5.75601,1.91867 0.57353,2.42962 4.28571,4.28571 0.42592,0.21296 0.95238,0 1.42857,0 0.95239,0 1.90477,0 2.85715,0 2.85714,0 5.71428,0 8.57143,0 5.23809,0 10.47619,0 15.71428,0 1.90476,0 3.83544,0.31314 5.71429,0 1.0503,-0.17505 1.90476,-0.95238 2.85714,-1.42857 0.95238,-0.47619 1.97118,-0.83793 2.85714,-1.42857 0.56033,-0.37356 0.82624,-1.1274 1.42857,-1.42857 0.85184,-0.42592 1.95364,0.30117 2.85715,0 10.34774,-3.44925 -2.2523,0.41186 4.28571,-2.85714 0.42592,-0.21296 1.00266,0.21295 1.42857,0 0.60234,-0.30117 0.82624,-1.12741 1.42857,-1.42858 0.86747,-0.43373 7.70397,0.43374 8.57143,0 0.60234,-0.30117 0.82624,-1.1274 1.42857,-1.42857 0.86747,-0.43373 7.70397,0.43373 8.57143,0 0.60234,-0.30117 0.82624,-1.1274 1.42857,-1.42857 0.42592,-0.21296 1.00266,0.21296 1.42858,0 6.53801,-3.269 -6.06203,0.5921 4.28571,-2.85714 1.51802,-0.50601 4.19627,0.506 5.71429,0 0.63887,-0.21296 0.78969,-1.21561 1.42857,-1.42857 0.90351,-0.30117 1.90476,0 2.85714,0 1.90476,0 3.80952,0 5.71429,0 1.21235,0 7.78388,-0.26252 8.57142,0 0.63888,0.21296 0.82624,1.1274 1.42858,1.42857 0.42591,0.21296 0.97681,-0.15059 1.42857,0 1.01015,0.33672 1.84699,1.09185 2.85714,1.42857 0.78761,0.26254 5.40886,-0.30543 5.71429,0 0.33671,0.33672 -0.33672,1.09185 0,1.42857 0.008,0.008 4.23795,-0.0119 4.28571,0 1.033,0.25825 1.84699,1.09185 2.85714,1.42857 0.45176,0.15059 0.97682,-0.15058 1.42857,0 1.01016,0.33672 1.82415,1.17032 2.85715,1.42857 0.92394,0.23099 1.90476,0 2.85714,0 1.90476,0 3.80952,0 5.71429,0 2.85714,0 5.71428,0 8.57142,0 0.93873,0 3.47972,0.26867 4.28572,0 1.01015,-0.33671 1.82414,-1.17032 2.85714,-1.42857 0.92395,-0.23098 1.95364,0.30117 2.85714,0 0.63888,-0.21296 0.82624,-1.1274 1.42858,-1.42857 0.42591,-0.21296 0.97681,0.15059 1.42857,0 1.01015,-0.33672 1.84699,-1.09185 2.85714,-1.42857 0.90351,-0.30117 2.00531,0.42592 2.85714,0 0.60234,-0.30117 0.82624,-1.1274 1.42857,-1.42857 0.85184,-0.42592 1.95364,0.30117 2.85715,0 1.01015,-0.33672 1.84699,-1.09186 2.85714,-1.42857 0.31481,-0.10494 8.09882,-0.11816 8.57143,0 6.89849,1.72462 -0.0708,0.67888 4.28571,2.85714 0.42592,0.21296 0.97682,-0.15059 1.42857,0 1.01016,0.33672 1.84699,1.09185 2.85715,1.42857 0.806,0.26867 3.34699,0 4.28571,0 2.38095,0 4.76191,0 7.14286,0 1.90476,0 3.83544,-0.31314 5.71428,0 1.05031,0.17505 1.84699,1.09185 2.85715,1.42857 8.12767,2.70923 3.12112,0.10559 10,2.85715 1.97727,0.7909 3.64828,2.34064 5.71428,2.85714 6.50327,0 0.0817,-0.67344 4.28572,1.42857 0.85183,0.42592 2.0053,-0.42592 2.85714,0 0.60234,0.30117 0.7897,1.21561 1.42857,1.42857 1.35526,0.45175 2.85714,0 4.28572,0 2.38095,0 4.7619,0 7.14285,0 3.80953,0 7.61905,0 11.42857,0 1.42858,0 2.85715,0 4.28572,0 0.95238,0 1.9332,0.23099 2.85714,0 5.42987,-1.35747 0.28442,-1.49968 5.71429,-2.85714 1.84789,-0.46197 3.86639,0.46197 5.71428,0 1.03301,-0.25825 1.84699,-1.09186 2.85715,-1.42857 0.92559,-0.30854 5.97328,0 7.14285,0 3.80953,0 7.61905,0 11.42857,0 8.12429,0 0.94052,0.63887 7.14286,-1.42857 1.51802,-0.50601 4.19627,0.506 5.71429,0 1.01015,-0.33672 1.84699,-1.09186 2.85714,-1.42858 1.14986,-0.38328 4.8014,0.45645 5.71429,0 0.60233,-0.30117 0.82623,-1.1274 1.42857,-1.42857 0.89789,-0.44894 4.81639,0.44895 5.71428,0 0.60234,-0.30117 0.82624,-1.1274 1.42857,-1.42857 0.42592,-0.21296 0.95239,0 1.42858,0 0.47619,-0.47619 0.82623,-1.1274 1.42857,-1.42857 0.85183,-0.42592 2.0053,0.42592 2.85714,0 0.60234,-0.30117 0.82623,-1.1274 1.42857,-1.42857 0.42592,-0.21296 1.00266,0.21296 1.42857,0 0.60234,-0.30117 0.82624,-1.1274 1.42857,-1.42857 0.42592,-0.21296 1.00266,0.21296 1.42858,0 0.60233,-0.30117 0.82623,-1.12741 1.42857,-1.42857 0.51662,-0.25831 6.14923,0 7.14285,0 5.52309,0 5.86908,0 8.57143,0 0.47619,0 1.42857,-0.4762 1.42857,0 0,0.47619 -1.42857,0.47619 -1.42857,0 0,-0.4762 1.21562,0.42591 1.42857,0 0.42592,-0.85184 -0.18677,-1.92326 0,-2.85715 0.29533,-1.4766 1.13326,-2.80911 1.42858,-4.28571 0.37355,-1.86777 0,-3.80953 0,-5.71429 0,-3.33333 0,-6.66666 0,-10 0,-0.64627 -0.19036,-8.19071 0,-8.57143 0.30117,-0.60233 1.1274,-0.82623 1.42857,-1.42857 0.21296,-0.42591 0,-0.95238 0,-1.42857 0,-0.95238 0,-1.90476 0,-2.85714 0,-4.28572 0,-8.57143 0,-12.85714 0,-0.46638 0.30682,-6.83604 0,-7.14286 -8.44027,-8.44026 -28.19905,-6.66316 -35.71429,-7.14286 -30.94063,-1.97493 -51.38639,-1.42857 -82.85714,-1.42857 -14.76191,0 -29.52381,0 -44.28572,0 -15.23809,0 -30.47817,-0.24574 -45.71428,0 -114.14453,1.84104 22.46636,1.42857 -80,1.42857 -10.47619,0 -20.98857,0.87 -31.42857,0 -6.79446,-0.5662 -13.36034,-2.73646 -20,-4.28571 -51.22804,-11.95321 3.92156,1.00321 -42.85715,-12.85715 -6.09141,-1.80486 -12.40794,-2.74484 -18.57142,-4.28571 -3.36322,-0.8408 -6.5892,-2.237 -10,-2.85714 -2.41246,-0.43863 -7.1896,0 -10,0 -10.95239,0 -21.91046,-0.35312 -32.85715,0 -8.58018,0.27678 -17.19933,0.33691 -25.71428,1.42857 -14.74693,1.89063 -39.22567,7.77765 -54.28572,11.42857 -7.63246,1.85029 -15.18285,4.04596 -22.85714,5.71429 -3.29032,0.71528 -6.87366,0.17803 -10,1.42857 -13.65751,-5.49238 -2.15613,4.64949 -4.28571,5.71428 -0.85184,0.42592 -1.90477,0 -2.85715,0 -4.7619,0 -9.52381,0 -14.28571,0 -7.61905,0 -15.2381,0 -22.85714,0 -2.38096,0 -4.78029,-0.29532 -7.14286,0 -1.49422,0.18678 -2.85714,0.95238 -4.28572,1.42857 -1.42857,0.47619 -2.93884,0.75514 -4.28571,1.42858 -1.95125,0.97562 -0.62364,1.98694 -2.85714,1.42857 -8.72184,-2.18046 -15.58003,-4.92286 -24.28572,-5.71429 -4.052454,-0.3684 -9.937178,0 -14.285711,0 -8.571429,0 -17.142858,0 -25.714286,0 -3.887878,0 -15.004957,0.45812 -17.142857,0 -3.546058,-0.75987 -6.533812,-3.21919 -10,-4.28571 C 32.945821,902.6532 30,902.55266 27.142857,902.07647 c -2.857143,-0.4762 -5.721597,-0.91043 -8.571428,-1.42858 -2.388939,-0.43435 -4.726803,-1.18696 -7.142858,-1.42857 -2.3691357,-0.23691 -4.7802903,0.29532 -7.1428567,0 -8.3601663,-1.04502 -0.7720573,-1.26444 -7.1428572,-2.85714 -0.6374418,-0.15936 -9.7741561,-0.0753 -10.0000001,0 -2.194442,0.73148 -1.106931,3.11891 -2.857143,4.28571 -0.792429,0.52829 -1.953635,-0.30117 -2.857143,0 -0.638876,0.21296 -0.826232,1.12741 -1.428571,1.42858 -0.425918,0.21295 -0.976817,-0.15059 -1.428571,0 -1.892009,0.63066 -4.555783,2.54795 -5.714286,4.28571 -2.056489,3.08473 -2.229226,6.91527 -4.285714,10 -0.74711,1.12066 -2.254805,1.65247 -2.857143,2.85714 -0.249018,0.49804 0,7.52275 0,8.57143 0,2.38095 0,4.76191 0,7.14286 0,0.95238 0,1.90476 0,2.85714 0,0.47619 -0.212959,1.00266 0,1.42857 0.301169,0.60234 1.127402,0.82624 1.428571,1.42857 0.425918,0.85184 -0.301169,1.95364 0,2.85715 0.336718,1.01015 1.091854,1.84699 1.428572,2.85714 0.150584,0.45175 -0.336718,1.09185 0,1.42857 0.336717,0.33672 1.091853,-0.33672 1.428571,0 0.390889,0.39089 -0.387491,4.9393 0,5.71429 0.301169,0.60234 0.952381,0.95238 1.428571,1.42857 0,0.95238 -0.301169,1.95363 0,2.85714 5.448745,9.52074 20.2014775,9.48446 28.15301015,17.04133 z"
         style="fill:#000000;fill-opacity:1;stroke:none;filter:url(#filter4791)" />
      <path
         style="fill:#ffffff;fill-opacity:1;stroke:none;filter:url(#filter4761)"
         d="M -0.41841885,974.83208 C 10.057772,974.83208 19.52381,984.93361 30,984.93361 c 1.39858,0 8.691078,0.26178 10,0 1.044117,-0.20883 1.824141,-1.17032 2.857143,-1.42857 0.923945,-0.23099 1.953635,0.30117 2.857143,0 0.638876,-0.21296 0.826233,-1.12741 1.428571,-1.42857 0.425918,-0.21296 1.002654,0.21295 1.428572,0 0.602338,-0.30117 0.826232,-1.12741 1.428571,-1.42858 0.425918,-0.21296 0.976818,0.15059 1.428571,0 1.010153,-0.33671 1.846991,-1.09185 2.857143,-1.42857 0.899142,-0.29971 5.855194,0 7.142857,0 1.428572,0 2.930453,-0.45175 4.285715,0 0.638876,0.21296 0.826233,1.1274 1.428571,1.42857 0.425918,0.21296 1.002654,-0.21296 1.428572,0 0.602338,0.30117 0.789694,1.21562 1.428571,1.42858 0.903508,0.30116 1.953635,-0.30117 2.857143,0 1.277753,0.42591 1.736479,2.11003 2.857143,2.85714 0.885962,0.59064 2.005307,0.78969 2.857143,1.42857 1.077496,0.80812 1.736479,2.11003 2.857142,2.85714 0.792429,0.52829 2.005308,-0.42592 2.857143,0 0.602339,0.30117 0.826233,1.1274 1.428572,1.42857 0.425917,0.21296 0.952381,0 1.428571,0 0.476191,0 0.952381,0 1.428572,0 2.857142,0 5.714285,0 8.571428,0 3.333333,0 6.666663,0 10.000003,0 0.95238,0 1.95363,0.30117 2.85714,0 1.01015,-0.33671 1.84699,-1.09185 2.85714,-1.42857 1.10836,-0.36945 6.33547,0.20185 7.14286,0 0.65333,-0.16333 0.82623,-1.1274 1.42857,-1.42857 0.85184,-0.42592 2.00531,0.42592 2.85714,0 0.60234,-0.30117 0.95239,-0.95238 1.42858,-1.42857 0.95238,-0.95238 1.73648,-2.11003 2.85714,-2.85714 0.39621,-0.26415 1.00265,0.21296 1.42857,0 0.60234,-0.30117 0.82623,-1.12741 1.42857,-1.42857 0.42592,-0.21296 0.97682,0.15058 1.42857,0 1.01016,-0.33672 1.82414,-1.17033 2.85715,-1.42858 0.92394,-0.23098 1.90476,0 2.85714,0 0.47619,0 1.00265,0.21296 1.42857,0 0.60234,-0.30117 0.82623,-1.1274 1.42857,-1.42857 0.85184,-0.42592 2.00531,0.42592 2.85714,0 0.60234,-0.30117 0.82624,-1.1274 1.42858,-1.42857 0.42591,-0.21296 1.00265,0.21296 1.42857,0 0.60234,-0.30117 0.78969,-1.21561 1.42857,-1.42857 0.90351,-0.30117 1.90476,0 2.85714,0 0.47619,0 1.00266,0.21296 1.42857,0 0.60234,-0.30117 0.95238,-0.95238 1.42857,-1.42857 0.95239,0 1.95364,0.30117 2.85715,0 0.63887,-0.21296 0.78969,-1.21561 1.42857,-1.42857 1.80701,-0.60234 3.90727,0.60234 5.71428,0 0.63888,-0.21296 0.82624,-1.12741 1.42858,-1.42857 0.94675,-0.47338 4.51696,0.3991 5.71428,0 1.01015,-0.33672 1.82414,-1.17033 2.85714,-1.42858 1.08638,-0.27159 5.94659,0 7.14286,0 3.80953,0 7.61905,0 11.42857,0 5.2381,0 10.47619,0 15.71429,0 0.47619,0 0.95238,0 1.42857,0 0.47619,0 1.09185,-0.33671 1.42857,0 0.33672,0.33672 -0.33672,1.09186 0,1.42858 0.67344,0.67343 2.18371,-0.67344 2.85714,0 0.33672,0.33671 -0.33671,1.09185 0,1.42857 0.67344,0.67343 2.18371,-0.67344 2.85715,0 0.33671,0.33671 -0.33672,1.09185 0,1.42857 0.33671,0.33672 1.09185,-0.33672 1.42857,0 0.33672,0.33672 -0.42592,1.21561 0,1.42857 0.85183,0.42592 1.9332,-0.23099 2.85714,0 1.033,0.25825 1.82414,1.17032 2.85714,1.42857 0.92395,0.23099 1.9332,-0.23099 2.85715,0 1.033,0.25825 1.82414,1.17032 2.85714,1.42857 2.1164,0.5291 5.15873,-0.79365 7.14286,0 1.25053,0.50022 1.6066,2.35693 2.85714,2.85715 1.3264,0.53055 2.85714,0 4.28571,0 1.42858,0 2.85715,0 4.28572,0 0.47619,0 0.95238,0 1.42857,0 0.47619,0 1.09185,-0.33672 1.42857,0 0.33672,0.33671 -0.33672,1.09185 0,1.42857 0.33672,0.33671 0.95238,0 1.42857,0 0,0.47619 -0.33671,1.09185 0,1.42857 0.33672,0.33672 0.97682,-0.15059 1.42857,0 1.01016,0.33672 1.90477,0.95238 2.85715,1.42857 0.95238,0.47619 2.0053,0.7897 2.85714,1.42857 1.61624,1.21218 2.60472,3.16505 4.28571,4.28572 0.26611,0.1774 5.62275,2.7656 5.71429,2.85714 0.75292,0.75292 0.67565,2.10419 1.42857,2.85719 0.33672,0.3367 1.00266,-0.213 1.42857,0 0.60234,0.3011 0.82624,1.1274 1.42857,1.4285 0.42592,0.213 1.09186,-0.3367 1.42858,0 2.95576,2.9558 -4.5168,-0.1155 1.42857,2.8572 0.52728,0.2636 7.32703,0 8.57143,0 1.84266,0 9.02957,0.3234 10,0 3.46461,-1.1549 3.80514,-3.4513 7.14285,-4.2857 3.01765,-0.7545 3.01634,1.2693 5.71429,-1.4286 0.75292,-0.75294 0.54261,-2.26652 1.42857,-2.85716 0.79243,-0.52829 1.95364,0.30117 2.85714,0 0.63888,-0.21296 0.86824,-1.05502 1.42857,-1.42857 0.88597,-0.59065 1.84699,-1.09186 2.85715,-1.42858 0.45175,-0.15058 1.21561,0.42592 1.42857,0 0.42592,-0.85183 -0.42592,-2.0053 0,-2.85714 0.21296,-0.42592 1.00265,0.21296 1.42857,0 0.60234,-0.30117 0.7897,-1.21561 1.42857,-1.42857 1.80702,-0.60234 3.90727,0.60234 5.71429,0 0.63887,-0.21296 0.78969,-1.21561 1.42857,-1.42857 1.35526,-0.45176 2.85714,0 4.28571,0 0.33948,0 5.3941,0.16009 5.71429,0 0.60234,-0.30117 0.78969,-1.21561 1.42857,-1.42857 0.90351,-0.30117 1.90476,0 2.85714,0 0.47619,0 1.00266,0.21296 1.42857,0 0.60234,-0.30117 0.82624,-1.12741 1.42858,-1.42857 0.84288,-0.42145 3.30309,0.32753 4.28571,0 1.01015,-0.33672 1.84699,-1.09186 2.85714,-1.42858 0.20328,-0.0678 8.03316,-0.26913 8.57143,0 0.60234,0.30117 0.82623,1.12741 1.42857,1.42858 0.42592,0.21295 0.95238,0 1.42857,0 0.47619,0 0.95239,0 1.42858,0 2.38095,0 4.7619,0 7.14285,0 1.42857,0 2.93046,-0.45176 4.28572,0 0.63887,0.21295 0.82623,1.1274 1.42857,1.42857 0.94119,0.47059 7.25034,-0.44037 8.57143,0 0.63887,0.21296 0.78969,1.21561 1.42857,1.42857 0.79002,0.26334 7.13278,0 8.57143,0 0.47619,0 0.97681,-0.15059 1.42857,0 5.75601,1.91867 0.57353,2.42962 4.28571,4.28571 0.42592,0.21296 0.95238,0 1.42857,0 0.95239,0 1.90477,0 2.85715,0 2.85714,0 5.71428,0 8.57143,0 5.23809,0 10.47619,0 15.71428,0 1.90476,0 3.83544,0.31314 5.71429,0 1.0503,-0.17505 1.90476,-0.95238 2.85714,-1.42857 0.95238,-0.47619 1.97118,-0.83793 2.85714,-1.42857 0.56033,-0.37356 0.82624,-1.1274 1.42857,-1.42857 0.85184,-0.42592 1.95364,0.30117 2.85715,0 10.34774,-3.44925 -2.2523,0.41186 4.28571,-2.85714 0.42592,-0.21296 1.00266,0.21295 1.42857,0 0.60234,-0.30117 0.82624,-1.12741 1.42857,-1.42858 0.86747,-0.43373 7.70397,0.43374 8.57143,0 0.60234,-0.30117 0.82624,-1.1274 1.42857,-1.42857 0.86747,-0.43373 7.70397,0.43373 8.57143,0 0.60234,-0.30117 0.82624,-1.1274 1.42857,-1.42857 0.42592,-0.21296 1.00266,0.21296 1.42858,0 6.53801,-3.269 -6.06203,0.5921 4.28571,-2.85714 1.51802,-0.50601 4.19627,0.506 5.71429,0 0.63887,-0.21296 0.78969,-1.21561 1.42857,-1.42857 0.90351,-0.30117 1.90476,0 2.85714,0 1.90476,0 3.80952,0 5.71429,0 1.21235,0 7.78388,-0.26252 8.57142,0 0.63888,0.21296 0.82624,1.1274 1.42858,1.42857 0.42591,0.21296 0.97681,-0.15059 1.42857,0 1.01015,0.33672 1.84699,1.09185 2.85714,1.42857 0.78761,0.26254 5.40886,-0.30543 5.71429,0 0.33671,0.33672 -0.33672,1.09185 0,1.42857 0.008,0.008 4.23795,-0.0119 4.28571,0 1.033,0.25825 1.84699,1.09185 2.85714,1.42857 0.45176,0.15059 0.97682,-0.15058 1.42857,0 1.01016,0.33672 1.82415,1.17032 2.85715,1.42857 0.92394,0.23099 1.90476,0 2.85714,0 1.90476,0 3.80952,0 5.71429,0 2.85714,0 5.71428,0 8.57142,0 0.93873,0 3.47972,0.26867 4.28572,0 1.01015,-0.33671 1.82414,-1.17032 2.85714,-1.42857 0.92395,-0.23098 1.95364,0.30117 2.85714,0 0.63888,-0.21296 0.82624,-1.1274 1.42858,-1.42857 0.42591,-0.21296 0.97681,0.15059 1.42857,0 1.01015,-0.33672 1.84699,-1.09185 2.85714,-1.42857 0.90351,-0.30117 2.00531,0.42592 2.85714,0 0.60234,-0.30117 0.82624,-1.1274 1.42857,-1.42857 0.85184,-0.42592 1.95364,0.30117 2.85715,0 1.01015,-0.33672 1.84699,-1.09186 2.85714,-1.42857 0.31481,-0.10494 8.09882,-0.11816 8.57143,0 6.89849,1.72462 -0.0708,0.67888 4.28571,2.85714 0.42592,0.21296 0.97682,-0.15059 1.42857,0 1.01016,0.33672 1.84699,1.09185 2.85715,1.42857 0.806,0.26867 3.34699,0 4.28571,0 2.38095,0 4.76191,0 7.14286,0 1.90476,0 3.83544,-0.31314 5.71428,0 1.05031,0.17505 1.84699,1.09185 2.85715,1.42857 8.12767,2.70923 3.12112,0.10559 10,2.85715 1.97727,0.7909 3.64828,2.34064 5.71428,2.85714 6.50327,0 0.0817,-0.67344 4.28572,1.42857 0.85183,0.42592 2.0053,-0.42592 2.85714,0 0.60234,0.30117 0.7897,1.21561 1.42857,1.42857 1.35526,0.45175 2.85714,0 4.28572,0 2.38095,0 4.7619,0 7.14285,0 3.80953,0 7.61905,0 11.42857,0 1.42858,0 2.85715,0 4.28572,0 0.95238,0 1.9332,0.23099 2.85714,0 5.42987,-1.35747 0.28442,-1.49968 5.71429,-2.85714 1.84789,-0.46197 3.86639,0.46197 5.71428,0 1.03301,-0.25825 1.84699,-1.09186 2.85715,-1.42857 0.92559,-0.30854 5.97328,0 7.14285,0 3.80953,0 7.61905,0 11.42857,0 8.12429,0 0.94052,0.63887 7.14286,-1.42857 1.51802,-0.50601 4.19627,0.506 5.71429,0 1.01015,-0.33672 1.84699,-1.09186 2.85714,-1.42858 1.14986,-0.38328 4.8014,0.45645 5.71429,0 0.60233,-0.30117 0.82623,-1.1274 1.42857,-1.42857 0.89789,-0.44894 4.81639,0.44895 5.71428,0 0.60234,-0.30117 0.82624,-1.1274 1.42857,-1.42857 0.42592,-0.21296 0.95239,0 1.42858,0 0.47619,-0.47619 0.82623,-1.1274 1.42857,-1.42857 0.85183,-0.42592 2.0053,0.42592 2.85714,0 0.60234,-0.30117 0.82623,-1.1274 1.42857,-1.42857 0.42592,-0.21296 1.00266,0.21296 1.42857,0 0.60234,-0.30117 0.82624,-1.1274 1.42857,-1.42857 0.42592,-0.21296 1.00266,0.21296 1.42858,0 0.60233,-0.30117 0.82623,-1.12741 1.42857,-1.42857 0.51662,-0.25831 6.14923,0 7.14285,0 5.52309,0 5.86908,0 8.57143,0 0.47619,0 1.42857,-0.4762 1.42857,0 0,0.47619 -1.42857,0.47619 -1.42857,0 0,-0.4762 1.21562,0.42591 1.42857,0 0.42592,-0.85184 -0.18677,-1.92326 0,-2.85715 0.29533,-1.4766 1.13326,-2.80911 1.42858,-4.28571 0.37355,-1.86777 0,-3.80953 0,-5.71429 0,-3.33333 0,-6.66666 0,-10 0,-0.64627 -0.19036,-8.19071 0,-8.57143 0.30117,-0.60233 1.1274,-0.82623 1.42857,-1.42857 0.21296,-0.42591 0,-0.95238 0,-1.42857 0,-0.95238 0,-1.90476 0,-2.85714 0,-4.28572 0,-8.57143 0,-12.85714 0,-0.46638 0.30682,-6.83604 0,-7.14286 -8.44027,-8.44026 -28.19905,-6.66316 -35.71429,-7.14286 -30.94063,-1.97493 -51.38639,-1.42857 -82.85714,-1.42857 -14.76191,0 -29.52381,0 -44.28572,0 -15.23809,0 -30.47817,-0.24574 -45.71428,0 -114.14453,1.84104 22.46636,1.42857 -80,1.42857 -10.47619,0 -20.98857,0.87 -31.42857,0 -6.79446,-0.5662 -13.36034,-2.73646 -20,-4.28571 -51.22804,-11.95321 3.92156,1.00321 -42.85715,-12.85715 -6.09141,-1.80486 -12.40794,-2.74484 -18.57142,-4.28571 -3.36322,-0.8408 -6.5892,-2.237 -10,-2.85714 -2.41246,-0.43863 -7.1896,0 -10,0 -10.95239,0 -21.91046,-0.35312 -32.85715,0 -8.58018,0.27678 -17.19933,0.33691 -25.71428,1.42857 -14.74693,1.89063 -39.22567,7.77765 -54.28572,11.42857 -7.63246,1.85029 -15.18285,4.04596 -22.85714,5.71429 -3.29032,0.71528 -6.87366,0.17803 -10,1.42857 -13.65751,-5.49238 -2.15613,4.64949 -4.28571,5.71428 -0.85184,0.42592 -1.90477,0 -2.85715,0 -4.7619,0 -9.52381,0 -14.28571,0 -7.61905,0 -15.2381,0 -22.85714,0 -2.38096,0 -4.78029,-0.29532 -7.14286,0 -1.49422,0.18678 -2.85714,0.95238 -4.28572,1.42857 -1.42857,0.47619 -2.93884,0.75514 -4.28571,1.42858 -1.95125,0.97562 -0.62364,1.98694 -2.85714,1.42857 -8.72184,-2.18046 -15.58003,-4.92286 -24.28572,-5.71429 -4.052454,-0.3684 -9.937178,0 -14.285711,0 -8.571429,0 -17.142858,0 -25.714286,0 -3.887878,0 -15.004957,0.45812 -17.142857,0 -3.546058,-0.75987 -6.533812,-3.21919 -10,-4.28571 C 32.945821,902.6532 30,902.55266 27.142857,902.07647 c -2.857143,-0.4762 -5.721597,-0.91043 -8.571428,-1.42858 -2.388939,-0.43435 -4.726803,-1.18696 -7.142858,-1.42857 -2.3691357,-0.23691 -4.7802903,0.29532 -7.1428567,0 -8.3601663,-1.04502 -0.7720573,-1.26444 -7.1428572,-2.85714 -0.6374418,-0.15936 -9.7741561,-0.0753 -10.0000001,0 -2.194442,0.73148 -1.106931,3.11891 -2.857143,4.28571 -0.792429,0.52829 -1.953635,-0.30117 -2.857143,0 -0.638876,0.21296 -0.826232,1.12741 -1.428571,1.42858 -0.425918,0.21295 -0.976817,-0.15059 -1.428571,0 -1.892009,0.63066 -4.555783,2.54795 -5.714286,4.28571 -2.056489,3.08473 -2.229226,6.91527 -4.285714,10 -0.74711,1.12066 -2.254805,1.65247 -2.857143,2.85714 -0.249018,0.49804 0,7.52275 0,8.57143 0,2.38095 0,4.76191 0,7.14286 0,0.95238 0,1.90476 0,2.85714 0,0.47619 -0.212959,1.00266 0,1.42857 0.301169,0.60234 1.127402,0.82624 1.428571,1.42857 0.425918,0.85184 -0.301169,1.95364 0,2.85715 0.336718,1.01015 1.091854,1.84699 1.428572,2.85714 0.150584,0.45175 -0.336718,1.09185 0,1.42857 0.336717,0.33672 1.091853,-0.33672 1.428571,0 0.390889,0.39089 -0.387491,4.9393 0,5.71429 0.301169,0.60234 0.952381,0.95238 1.428571,1.42857 0,0.95238 -0.301169,1.95363 0,2.85714 5.448745,9.52074 20.2014775,9.48446 28.15301015,17.04133 z"
         id="path4803"
         inkscape:connector-curvature="0"
         sodipodi:nodetypes="csssssssssssssssssssssssssssssssssssssssssssscsssssssssssssscssssssssssssssccsssccsssssssssssssssssssssssssssssssssssssssssssssssssscssssssssssssssccsssssssssssssssssssssssssscsssssssssssssssssssscsssssssssssccsssssssssssssssssssssssscssssssssssssssssssssssssssssssssssssccc" />
    </g>
  </g>
</svg>
